<?xml version="1.0" encoding="utf-8" standalone="no"?>
<!DOCTYPE svg PUBLIC "-//W3C//DTD SVG 1.1//EN"
  "http://www.w3.org/Graphics/SVG/1.1/DTD/svg11.dtd">
<svg xmlns:xlink="http://www.w3.org/1999/xlink" width="565.727266pt" height="348.48pt" viewBox="0 0 565.727266 348.48" xmlns="http://www.w3.org/2000/svg" version="1.1">
 <metadata>
  <rdf:RDF xmlns:dc="http://purl.org/dc/elements/1.1/" xmlns:cc="http://creativecommons.org/ns#" xmlns:rdf="http://www.w3.org/1999/02/22-rdf-syntax-ns#">
   <cc:Work>
    <dc:type rdf:resource="http://purl.org/dc/dcmitype/StillImage"/>
    <dc:date>2026-06-25T00:35:36.373078</dc:date>
    <dc:format>image/svg+xml</dc:format>
    <dc:creator>
     <cc:Agent>
      <dc:title>Matplotlib v3.11.0, https://matplotlib.org/</dc:title>
     </cc:Agent>
    </dc:creator>
   </cc:Work>
  </rdf:RDF>
 </metadata>
 <defs>
  <style type="text/css">*{stroke-linejoin: round; stroke-linecap: butt}</style>
 </defs>
 <g id="figure_1">
  <g id="patch_1">
   <path d="M 0 348.48 
L 565.727266 348.48 
L 565.727266 0 
L 0 0 
z
" style="fill: #ffffff"/>
  </g>
  <g id="axes_1">
   <g id="patch_2">
    <path d="M 53.368984 306.195039 
L 558.527266 306.195039 
L 558.527266 21.936328 
L 53.368984 21.936328 
z
" style="fill: #ffffff"/>
   </g>
   <g id="matplotlib.axis_1">
    <g id="xtick_1">
     <g id="line2d_1">
      <path d="M 76.330724 306.195039 
L 76.330724 21.936328 
" clip-path="url(#p90c938a965)" style="fill: none; stroke: #cccccc; stroke-linecap: round"/>
     </g>
     <g id="text_1">
      <!-- 0 -->
      <g style="fill: #262626" transform="translate(73.272209 323.70334) scale(0.11 -0.11)">
       <defs>
        <path id="ArialMT-13" d="M 266 2259 
Q 266 3072 433 3567 
Q 600 4063 929 4331 
Q 1259 4600 1759 4600 
Q 2128 4600 2406 4451 
Q 2684 4303 2865 4023 
Q 3047 3744 3150 3342 
Q 3253 2941 3253 2259 
Q 3253 1453 3087 958 
Q 2922 463 2592 192 
Q 2263 -78 1759 -78 
Q 1097 -78 719 397 
Q 266 969 266 2259 
z
M 844 2259 
Q 844 1131 1108 757 
Q 1372 384 1759 384 
Q 2147 384 2411 759 
Q 2675 1134 2675 2259 
Q 2675 3391 2411 3762 
Q 2147 4134 1753 4134 
Q 1366 4134 1134 3806 
Q 844 3388 844 2259 
z
" transform="scale(0.015625)"/>
       </defs>
       <use xlink:href="#ArialMT-13"/>
      </g>
     </g>
    </g>
    <g id="xtick_2">
     <g id="line2d_2">
      <path d="M 172.808624 306.195039 
L 172.808624 21.936328 
" clip-path="url(#p90c938a965)" style="fill: none; stroke: #cccccc; stroke-linecap: round"/>
     </g>
     <g id="text_2">
      <!-- 50 -->
      <g style="fill: #262626" transform="translate(166.691593 323.70334) scale(0.11 -0.11)">
       <defs>
        <path id="ArialMT-18" d="M 266 1200 
L 856 1250 
Q 922 819 1161 601 
Q 1400 384 1738 384 
Q 2144 384 2425 690 
Q 2706 997 2706 1503 
Q 2706 1984 2436 2262 
Q 2166 2541 1728 2541 
Q 1456 2541 1237 2417 
Q 1019 2294 894 2097 
L 366 2166 
L 809 4519 
L 3088 4519 
L 3088 3981 
L 1259 3981 
L 1013 2750 
Q 1425 3038 1878 3038 
Q 2478 3038 2890 2622 
Q 3303 2206 3303 1553 
Q 3303 931 2941 478 
Q 2500 -78 1738 -78 
Q 1113 -78 717 272 
Q 322 622 266 1200 
z
" transform="scale(0.015625)"/>
       </defs>
       <use xlink:href="#ArialMT-18"/>
       <use xlink:href="#ArialMT-13" transform="translate(55.609375 0)"/>
      </g>
     </g>
    </g>
    <g id="xtick_3">
     <g id="line2d_3">
      <path d="M 269.286523 306.195039 
L 269.286523 21.936328 
" clip-path="url(#p90c938a965)" style="fill: none; stroke: #cccccc; stroke-linecap: round"/>
     </g>
     <g id="text_3">
      <!-- 100 -->
      <g style="fill: #262626" transform="translate(260.110976 323.70334) scale(0.11 -0.11)">
       <defs>
        <path id="ArialMT-14" d="M 2384 0 
L 1822 0 
L 1822 3584 
Q 1619 3391 1289 3197 
Q 959 3003 697 2906 
L 697 3450 
Q 1169 3672 1522 3987 
Q 1875 4303 2022 4600 
L 2384 4600 
L 2384 0 
z
" transform="scale(0.015625)"/>
       </defs>
       <use xlink:href="#ArialMT-14"/>
       <use xlink:href="#ArialMT-13" transform="translate(55.609375 0)"/>
       <use xlink:href="#ArialMT-13" transform="translate(111.21875 0)"/>
      </g>
     </g>
    </g>
    <g id="xtick_4">
     <g id="line2d_4">
      <path d="M 365.764423 306.195039 
L 365.764423 21.936328 
" clip-path="url(#p90c938a965)" style="fill: none; stroke: #cccccc; stroke-linecap: round"/>
     </g>
     <g id="text_4">
      <!-- 150 -->
      <g style="fill: #262626" transform="translate(356.588876 323.70334) scale(0.11 -0.11)">
       <use xlink:href="#ArialMT-14"/>
       <use xlink:href="#ArialMT-18" transform="translate(55.609375 0)"/>
       <use xlink:href="#ArialMT-13" transform="translate(111.21875 0)"/>
      </g>
     </g>
    </g>
    <g id="xtick_5">
     <g id="line2d_5">
      <path d="M 462.242322 306.195039 
L 462.242322 21.936328 
" clip-path="url(#p90c938a965)" style="fill: none; stroke: #cccccc; stroke-linecap: round"/>
     </g>
     <g id="text_5">
      <!-- 200 -->
      <g style="fill: #262626" transform="translate(453.066775 323.70334) scale(0.11 -0.11)">
       <defs>
        <path id="ArialMT-15" d="M 3222 541 
L 3222 0 
L 194 0 
Q 188 203 259 391 
Q 375 700 629 1000 
Q 884 1300 1366 1694 
Q 2113 2306 2375 2664 
Q 2638 3022 2638 3341 
Q 2638 3675 2398 3904 
Q 2159 4134 1775 4134 
Q 1369 4134 1125 3890 
Q 881 3647 878 3216 
L 300 3275 
Q 359 3922 746 4261 
Q 1134 4600 1788 4600 
Q 2447 4600 2831 4234 
Q 3216 3869 3216 3328 
Q 3216 3053 3103 2787 
Q 2991 2522 2730 2228 
Q 2469 1934 1863 1422 
Q 1356 997 1212 845 
Q 1069 694 975 541 
L 3222 541 
z
" transform="scale(0.015625)"/>
       </defs>
       <use xlink:href="#ArialMT-15"/>
       <use xlink:href="#ArialMT-13" transform="translate(55.609375 0)"/>
       <use xlink:href="#ArialMT-13" transform="translate(111.21875 0)"/>
      </g>
     </g>
    </g>
    <g id="text_6">
     <!-- Epoch -->
     <g style="fill: #262626" transform="translate(288.93625 338.754609) scale(0.12 -0.12)">
      <defs>
       <path id="ArialMT-28" d="M 506 0 
L 506 4581 
L 3819 4581 
L 3819 4041 
L 1113 4041 
L 1113 2638 
L 3647 2638 
L 3647 2100 
L 1113 2100 
L 1113 541 
L 3925 541 
L 3925 0 
L 506 0 
z
" transform="scale(0.015625)"/>
       <path id="ArialMT-53" d="M 422 -1272 
L 422 3319 
L 934 3319 
L 934 2888 
Q 1116 3141 1344 3267 
Q 1572 3394 1897 3394 
Q 2322 3394 2647 3175 
Q 2972 2956 3137 2557 
Q 3303 2159 3303 1684 
Q 3303 1175 3120 767 
Q 2938 359 2589 142 
Q 2241 -75 1856 -75 
Q 1575 -75 1351 44 
Q 1128 163 984 344 
L 984 -1272 
L 422 -1272 
z
M 931 1641 
Q 931 1000 1190 694 
Q 1450 388 1819 388 
Q 2194 388 2461 705 
Q 2728 1022 2728 1688 
Q 2728 2322 2467 2637 
Q 2206 2953 1844 2953 
Q 1484 2953 1207 2617 
Q 931 2281 931 1641 
z
" transform="scale(0.015625)"/>
       <path id="ArialMT-52" d="M 213 1659 
Q 213 2581 725 3025 
Q 1153 3394 1769 3394 
Q 2453 3394 2887 2945 
Q 3322 2497 3322 1706 
Q 3322 1066 3130 698 
Q 2938 331 2570 128 
Q 2203 -75 1769 -75 
Q 1072 -75 642 372 
Q 213 819 213 1659 
z
M 791 1659 
Q 791 1022 1069 705 
Q 1347 388 1769 388 
Q 2188 388 2466 706 
Q 2744 1025 2744 1678 
Q 2744 2294 2464 2611 
Q 2184 2928 1769 2928 
Q 1347 2928 1069 2612 
Q 791 2297 791 1659 
z
" transform="scale(0.015625)"/>
       <path id="ArialMT-46" d="M 2588 1216 
L 3141 1144 
Q 3050 572 2676 248 
Q 2303 -75 1759 -75 
Q 1078 -75 664 370 
Q 250 816 250 1647 
Q 250 2184 428 2587 
Q 606 2991 970 3192 
Q 1334 3394 1763 3394 
Q 2303 3394 2647 3120 
Q 2991 2847 3088 2344 
L 2541 2259 
Q 2463 2594 2264 2762 
Q 2066 2931 1784 2931 
Q 1359 2931 1093 2626 
Q 828 2322 828 1663 
Q 828 994 1084 691 
Q 1341 388 1753 388 
Q 2084 388 2306 591 
Q 2528 794 2588 1216 
z
" transform="scale(0.015625)"/>
       <path id="ArialMT-4b" d="M 422 0 
L 422 4581 
L 984 4581 
L 984 2938 
Q 1378 3394 1978 3394 
Q 2347 3394 2619 3248 
Q 2891 3103 3008 2847 
Q 3125 2591 3125 2103 
L 3125 0 
L 2563 0 
L 2563 2103 
Q 2563 2525 2380 2717 
Q 2197 2909 1863 2909 
Q 1613 2909 1392 2779 
Q 1172 2650 1078 2428 
Q 984 2206 984 1816 
L 984 0 
L 422 0 
z
" transform="scale(0.015625)"/>
      </defs>
      <use xlink:href="#ArialMT-28"/>
      <use xlink:href="#ArialMT-53" transform="translate(66.703125 0)"/>
      <use xlink:href="#ArialMT-52" transform="translate(122.3125 0)"/>
      <use xlink:href="#ArialMT-46" transform="translate(177.921875 0)"/>
      <use xlink:href="#ArialMT-4b" transform="translate(227.921875 0)"/>
     </g>
    </g>
   </g>
   <g id="matplotlib.axis_2">
    <g id="ytick_1">
     <g id="line2d_6">
      <path d="M 53.368984 292.161033 
L 558.527266 292.161033 
" clip-path="url(#p90c938a965)" style="fill: none; stroke: #cccccc; stroke-linecap: round"/>
     </g>
     <g id="text_7">
      <!-- 0.25 -->
      <g style="fill: #262626" transform="translate(22.461953 296.165183) scale(0.11 -0.11)">
       <defs>
        <path id="ArialMT-11" d="M 581 0 
L 581 641 
L 1222 641 
L 1222 0 
L 581 0 
z
" transform="scale(0.015625)"/>
       </defs>
       <use xlink:href="#ArialMT-13"/>
       <use xlink:href="#ArialMT-11" transform="translate(55.609375 0)"/>
       <use xlink:href="#ArialMT-15" transform="translate(83.390625 0)"/>
       <use xlink:href="#ArialMT-18" transform="translate(139 0)"/>
      </g>
     </g>
    </g>
    <g id="ytick_2">
     <g id="line2d_7">
      <path d="M 53.368984 253.978427 
L 558.527266 253.978427 
" clip-path="url(#p90c938a965)" style="fill: none; stroke: #cccccc; stroke-linecap: round"/>
     </g>
     <g id="text_8">
      <!-- 0.50 -->
      <g style="fill: #262626" transform="translate(22.461953 257.982577) scale(0.11 -0.11)">
       <use xlink:href="#ArialMT-13"/>
       <use xlink:href="#ArialMT-11" transform="translate(55.609375 0)"/>
       <use xlink:href="#ArialMT-18" transform="translate(83.390625 0)"/>
       <use xlink:href="#ArialMT-13" transform="translate(139 0)"/>
      </g>
     </g>
    </g>
    <g id="ytick_3">
     <g id="line2d_8">
      <path d="M 53.368984 215.795821 
L 558.527266 215.795821 
" clip-path="url(#p90c938a965)" style="fill: none; stroke: #cccccc; stroke-linecap: round"/>
     </g>
     <g id="text_9">
      <!-- 0.75 -->
      <g style="fill: #262626" transform="translate(22.461953 219.799971) scale(0.11 -0.11)">
       <defs>
        <path id="ArialMT-1a" d="M 303 3981 
L 303 4522 
L 3269 4522 
L 3269 4084 
Q 2831 3619 2401 2847 
Q 1972 2075 1738 1259 
Q 1569 684 1522 0 
L 944 0 
Q 953 541 1156 1306 
Q 1359 2072 1739 2783 
Q 2119 3494 2547 3981 
L 303 3981 
z
" transform="scale(0.015625)"/>
       </defs>
       <use xlink:href="#ArialMT-13"/>
       <use xlink:href="#ArialMT-11" transform="translate(55.609375 0)"/>
       <use xlink:href="#ArialMT-1a" transform="translate(83.390625 0)"/>
       <use xlink:href="#ArialMT-18" transform="translate(139 0)"/>
      </g>
     </g>
    </g>
    <g id="ytick_4">
     <g id="line2d_9">
      <path d="M 53.368984 177.613215 
L 558.527266 177.613215 
" clip-path="url(#p90c938a965)" style="fill: none; stroke: #cccccc; stroke-linecap: round"/>
     </g>
     <g id="text_10">
      <!-- 1.00 -->
      <g style="fill: #262626" transform="translate(22.461953 181.617365) scale(0.11 -0.11)">
       <use xlink:href="#ArialMT-14"/>
       <use xlink:href="#ArialMT-11" transform="translate(55.609375 0)"/>
       <use xlink:href="#ArialMT-13" transform="translate(83.390625 0)"/>
       <use xlink:href="#ArialMT-13" transform="translate(139 0)"/>
      </g>
     </g>
    </g>
    <g id="ytick_5">
     <g id="line2d_10">
      <path d="M 53.368984 139.430609 
L 558.527266 139.430609 
" clip-path="url(#p90c938a965)" style="fill: none; stroke: #cccccc; stroke-linecap: round"/>
     </g>
     <g id="text_11">
      <!-- 1.25 -->
      <g style="fill: #262626" transform="translate(22.461953 143.434759) scale(0.11 -0.11)">
       <use xlink:href="#ArialMT-14"/>
       <use xlink:href="#ArialMT-11" transform="translate(55.609375 0)"/>
       <use xlink:href="#ArialMT-15" transform="translate(83.390625 0)"/>
       <use xlink:href="#ArialMT-18" transform="translate(139 0)"/>
      </g>
     </g>
    </g>
    <g id="ytick_6">
     <g id="line2d_11">
      <path d="M 53.368984 101.248003 
L 558.527266 101.248003 
" clip-path="url(#p90c938a965)" style="fill: none; stroke: #cccccc; stroke-linecap: round"/>
     </g>
     <g id="text_12">
      <!-- 1.50 -->
      <g style="fill: #262626" transform="translate(22.461953 105.252153) scale(0.11 -0.11)">
       <use xlink:href="#ArialMT-14"/>
       <use xlink:href="#ArialMT-11" transform="translate(55.609375 0)"/>
       <use xlink:href="#ArialMT-18" transform="translate(83.390625 0)"/>
       <use xlink:href="#ArialMT-13" transform="translate(139 0)"/>
      </g>
     </g>
    </g>
    <g id="ytick_7">
     <g id="line2d_12">
      <path d="M 53.368984 63.065397 
L 558.527266 63.065397 
" clip-path="url(#p90c938a965)" style="fill: none; stroke: #cccccc; stroke-linecap: round"/>
     </g>
     <g id="text_13">
      <!-- 1.75 -->
      <g style="fill: #262626" transform="translate(22.461953 67.069547) scale(0.11 -0.11)">
       <use xlink:href="#ArialMT-14"/>
       <use xlink:href="#ArialMT-11" transform="translate(55.609375 0)"/>
       <use xlink:href="#ArialMT-1a" transform="translate(83.390625 0)"/>
       <use xlink:href="#ArialMT-18" transform="translate(139 0)"/>
      </g>
     </g>
    </g>
    <g id="ytick_8">
     <g id="line2d_13">
      <path d="M 53.368984 24.88279 
L 558.527266 24.88279 
" clip-path="url(#p90c938a965)" style="fill: none; stroke: #cccccc; stroke-linecap: round"/>
     </g>
     <g id="text_14">
      <!-- 2.00 -->
      <g style="fill: #262626" transform="translate(22.461953 28.886941) scale(0.11 -0.11)">
       <use xlink:href="#ArialMT-15"/>
       <use xlink:href="#ArialMT-11" transform="translate(55.609375 0)"/>
       <use xlink:href="#ArialMT-13" transform="translate(83.390625 0)"/>
       <use xlink:href="#ArialMT-13" transform="translate(139 0)"/>
      </g>
     </g>
    </g>
    <g id="text_15">
     <!-- Reconstruction loss (MSE) -->
     <g style="fill: #262626" transform="translate(15.936328 235.084121) rotate(-90) scale(0.12 -0.12)">
      <defs>
       <path id="ArialMT-35" d="M 503 0 
L 503 4581 
L 2534 4581 
Q 3147 4581 3465 4457 
Q 3784 4334 3975 4021 
Q 4166 3709 4166 3331 
Q 4166 2844 3850 2509 
Q 3534 2175 2875 2084 
Q 3116 1969 3241 1856 
Q 3506 1613 3744 1247 
L 4541 0 
L 3778 0 
L 3172 953 
Q 2906 1366 2734 1584 
Q 2563 1803 2427 1890 
Q 2291 1978 2150 2013 
Q 2047 2034 1813 2034 
L 1109 2034 
L 1109 0 
L 503 0 
z
M 1109 2559 
L 2413 2559 
Q 2828 2559 3062 2645 
Q 3297 2731 3419 2920 
Q 3541 3109 3541 3331 
Q 3541 3656 3305 3865 
Q 3069 4075 2559 4075 
L 1109 4075 
L 1109 2559 
z
" transform="scale(0.015625)"/>
       <path id="ArialMT-48" d="M 2694 1069 
L 3275 997 
Q 3138 488 2766 206 
Q 2394 -75 1816 -75 
Q 1088 -75 661 373 
Q 234 822 234 1631 
Q 234 2469 665 2931 
Q 1097 3394 1784 3394 
Q 2450 3394 2872 2941 
Q 3294 2488 3294 1666 
Q 3294 1616 3291 1516 
L 816 1516 
Q 847 969 1125 678 
Q 1403 388 1819 388 
Q 2128 388 2347 550 
Q 2566 713 2694 1069 
z
M 847 1978 
L 2700 1978 
Q 2663 2397 2488 2606 
Q 2219 2931 1791 2931 
Q 1403 2931 1139 2672 
Q 875 2413 847 1978 
z
" transform="scale(0.015625)"/>
       <path id="ArialMT-51" d="M 422 0 
L 422 3319 
L 928 3319 
L 928 2847 
Q 1294 3394 1984 3394 
Q 2284 3394 2536 3286 
Q 2788 3178 2913 3003 
Q 3038 2828 3088 2588 
Q 3119 2431 3119 2041 
L 3119 0 
L 2556 0 
L 2556 2019 
Q 2556 2363 2490 2533 
Q 2425 2703 2258 2804 
Q 2091 2906 1866 2906 
Q 1506 2906 1245 2678 
Q 984 2450 984 1813 
L 984 0 
L 422 0 
z
" transform="scale(0.015625)"/>
       <path id="ArialMT-56" d="M 197 991 
L 753 1078 
Q 800 744 1014 566 
Q 1228 388 1613 388 
Q 2000 388 2187 545 
Q 2375 703 2375 916 
Q 2375 1106 2209 1216 
Q 2094 1291 1634 1406 
Q 1016 1563 777 1677 
Q 538 1791 414 1992 
Q 291 2194 291 2438 
Q 291 2659 392 2848 
Q 494 3038 669 3163 
Q 800 3259 1026 3326 
Q 1253 3394 1513 3394 
Q 1903 3394 2198 3281 
Q 2494 3169 2634 2976 
Q 2775 2784 2828 2463 
L 2278 2388 
Q 2241 2644 2061 2787 
Q 1881 2931 1553 2931 
Q 1166 2931 1000 2803 
Q 834 2675 834 2503 
Q 834 2394 903 2306 
Q 972 2216 1119 2156 
Q 1203 2125 1616 2013 
Q 2213 1853 2448 1751 
Q 2684 1650 2818 1456 
Q 2953 1263 2953 975 
Q 2953 694 2789 445 
Q 2625 197 2315 61 
Q 2006 -75 1616 -75 
Q 969 -75 630 194 
Q 291 463 197 991 
z
" transform="scale(0.015625)"/>
       <path id="ArialMT-57" d="M 1650 503 
L 1731 6 
Q 1494 -44 1306 -44 
Q 1000 -44 831 53 
Q 663 150 594 308 
Q 525 466 525 972 
L 525 2881 
L 113 2881 
L 113 3319 
L 525 3319 
L 525 4141 
L 1084 4478 
L 1084 3319 
L 1650 3319 
L 1650 2881 
L 1084 2881 
L 1084 941 
Q 1084 700 1114 631 
Q 1144 563 1211 522 
Q 1278 481 1403 481 
Q 1497 481 1650 503 
z
" transform="scale(0.015625)"/>
       <path id="ArialMT-55" d="M 416 0 
L 416 3319 
L 922 3319 
L 922 2816 
Q 1116 3169 1280 3281 
Q 1444 3394 1641 3394 
Q 1925 3394 2219 3213 
L 2025 2691 
Q 1819 2813 1613 2813 
Q 1428 2813 1281 2702 
Q 1134 2591 1072 2394 
Q 978 2094 978 1738 
L 978 0 
L 416 0 
z
" transform="scale(0.015625)"/>
       <path id="ArialMT-58" d="M 2597 0 
L 2597 488 
Q 2209 -75 1544 -75 
Q 1250 -75 995 37 
Q 741 150 617 320 
Q 494 491 444 738 
Q 409 903 409 1263 
L 409 3319 
L 972 3319 
L 972 1478 
Q 972 1038 1006 884 
Q 1059 663 1231 536 
Q 1403 409 1656 409 
Q 1909 409 2131 539 
Q 2353 669 2445 892 
Q 2538 1116 2538 1541 
L 2538 3319 
L 3100 3319 
L 3100 0 
L 2597 0 
z
" transform="scale(0.015625)"/>
       <path id="ArialMT-4c" d="M 425 3934 
L 425 4581 
L 988 4581 
L 988 3934 
L 425 3934 
z
M 425 0 
L 425 3319 
L 988 3319 
L 988 0 
L 425 0 
z
" transform="scale(0.015625)"/>
       <path id="ArialMT-3" transform="scale(0.015625)"/>
       <path id="ArialMT-4f" d="M 409 0 
L 409 4581 
L 972 4581 
L 972 0 
L 409 0 
z
" transform="scale(0.015625)"/>
       <path id="ArialMT-b" d="M 1497 -1347 
Q 1031 -759 709 28 
Q 388 816 388 1659 
Q 388 2403 628 3084 
Q 909 3875 1497 4659 
L 1900 4659 
Q 1522 4009 1400 3731 
Q 1209 3300 1100 2831 
Q 966 2247 966 1656 
Q 966 153 1900 -1347 
L 1497 -1347 
z
" transform="scale(0.015625)"/>
       <path id="ArialMT-30" d="M 475 0 
L 475 4581 
L 1388 4581 
L 2472 1338 
Q 2622 884 2691 659 
Q 2769 909 2934 1394 
L 4031 4581 
L 4847 4581 
L 4847 0 
L 4263 0 
L 4263 3834 
L 2931 0 
L 2384 0 
L 1059 3900 
L 1059 0 
L 475 0 
z
" transform="scale(0.015625)"/>
       <path id="ArialMT-36" d="M 288 1472 
L 859 1522 
Q 900 1178 1048 958 
Q 1197 738 1509 602 
Q 1822 466 2213 466 
Q 2559 466 2825 569 
Q 3091 672 3220 851 
Q 3350 1031 3350 1244 
Q 3350 1459 3225 1620 
Q 3100 1781 2813 1891 
Q 2628 1963 1997 2114 
Q 1366 2266 1113 2400 
Q 784 2572 623 2826 
Q 463 3081 463 3397 
Q 463 3744 659 4045 
Q 856 4347 1234 4503 
Q 1613 4659 2075 4659 
Q 2584 4659 2973 4495 
Q 3363 4331 3572 4012 
Q 3781 3694 3797 3291 
L 3216 3247 
Q 3169 3681 2898 3903 
Q 2628 4125 2100 4125 
Q 1550 4125 1298 3923 
Q 1047 3722 1047 3438 
Q 1047 3191 1225 3031 
Q 1400 2872 2139 2705 
Q 2878 2538 3153 2413 
Q 3553 2228 3743 1945 
Q 3934 1663 3934 1294 
Q 3934 928 3725 604 
Q 3516 281 3123 101 
Q 2731 -78 2241 -78 
Q 1619 -78 1198 103 
Q 778 284 539 648 
Q 300 1013 288 1472 
z
" transform="scale(0.015625)"/>
       <path id="ArialMT-c" d="M 791 -1347 
L 388 -1347 
Q 1322 153 1322 1656 
Q 1322 2244 1188 2822 
Q 1081 3291 891 3722 
Q 769 4003 388 4659 
L 791 4659 
Q 1378 3875 1659 3084 
Q 1900 2403 1900 1659 
Q 1900 816 1576 28 
Q 1253 -759 791 -1347 
z
" transform="scale(0.015625)"/>
      </defs>
      <use xlink:href="#ArialMT-35"/>
      <use xlink:href="#ArialMT-48" transform="translate(72.21875 0)"/>
      <use xlink:href="#ArialMT-46" transform="translate(127.828125 0)"/>
      <use xlink:href="#ArialMT-52" transform="translate(177.828125 0)"/>
      <use xlink:href="#ArialMT-51" transform="translate(233.4375 0)"/>
      <use xlink:href="#ArialMT-56" transform="translate(289.046875 0)"/>
      <use xlink:href="#ArialMT-57" transform="translate(339.046875 0)"/>
      <use xlink:href="#ArialMT-55" transform="translate(366.828125 0)"/>
      <use xlink:href="#ArialMT-58" transform="translate(400.125 0)"/>
      <use xlink:href="#ArialMT-46" transform="translate(455.734375 0)"/>
      <use xlink:href="#ArialMT-57" transform="translate(505.734375 0)"/>
      <use xlink:href="#ArialMT-4c" transform="translate(533.515625 0)"/>
      <use xlink:href="#ArialMT-52" transform="translate(555.734375 0)"/>
      <use xlink:href="#ArialMT-51" transform="translate(611.34375 0)"/>
      <use xlink:href="#ArialMT-3" transform="translate(666.953125 0)"/>
      <use xlink:href="#ArialMT-4f" transform="translate(694.734375 0)"/>
      <use xlink:href="#ArialMT-52" transform="translate(716.953125 0)"/>
      <use xlink:href="#ArialMT-56" transform="translate(772.5625 0)"/>
      <use xlink:href="#ArialMT-56" transform="translate(822.5625 0)"/>
      <use xlink:href="#ArialMT-3" transform="translate(872.5625 0)"/>
      <use xlink:href="#ArialMT-b" transform="translate(900.34375 0)"/>
      <use xlink:href="#ArialMT-30" transform="translate(933.640625 0)"/>
      <use xlink:href="#ArialMT-36" transform="translate(1016.9375 0)"/>
      <use xlink:href="#ArialMT-28" transform="translate(1083.640625 0)"/>
      <use xlink:href="#ArialMT-c" transform="translate(1150.34375 0)"/>
     </g>
    </g>
   </g>
   <g id="line2d_14">
    <path d="M 76.330724 34.857179 
L 78.260282 132.455903 
L 80.18984 171.389078 
L 82.119398 187.315878 
L 84.048956 199.853647 
L 87.908072 216.54735 
L 89.83763 219.884322 
L 91.767188 227.814662 
L 95.626304 234.889328 
L 97.555862 235.703238 
L 99.48542 241.27932 
L 101.414978 242.663316 
L 103.344536 241.933782 
L 105.274094 247.22119 
L 107.203652 247.075963 
L 109.13321 248.333099 
L 111.062768 250.352185 
L 112.992326 251.88737 
L 114.921884 254.641879 
L 116.851442 258.515554 
L 118.781 255.639894 
L 120.710558 256.548877 
L 122.640116 254.563967 
L 124.569674 258.113694 
L 126.499232 260.462534 
L 128.42879 259.265128 
L 130.358348 262.1553 
L 132.287906 262.631938 
L 134.217464 262.644403 
L 136.147022 261.144909 
L 138.07658 264.159994 
L 140.006138 266.098193 
L 141.935696 266.038081 
L 143.865254 264.256914 
L 145.794812 263.283465 
L 149.653928 268.926134 
L 151.583486 266.854308 
L 153.513044 266.814678 
L 155.442602 266.459686 
L 157.37216 266.526329 
L 159.301718 269.779442 
L 161.231276 268.385589 
L 163.160834 267.376787 
L 165.090392 267.761119 
L 167.01995 269.709217 
L 168.949508 270.162061 
L 170.879066 272.937548 
L 172.808624 268.48517 
L 174.738182 271.582092 
L 176.66774 270.931047 
L 178.597298 272.051305 
L 180.526856 272.735053 
L 182.456414 271.873146 
L 184.385972 272.411589 
L 186.31553 273.494155 
L 188.245088 270.961112 
L 190.174646 273.324809 
L 192.104204 271.519602 
L 194.033762 274.304915 
L 195.96332 275.395272 
L 197.892878 274.09462 
L 199.822436 270.90525 
L 201.751994 274.528125 
L 203.681552 275.847747 
L 205.61111 273.834663 
L 207.540668 274.401534 
L 211.399784 274.203876 
L 213.329342 276.970699 
L 215.2589 272.168511 
L 217.188458 276.362811 
L 219.118016 277.531435 
L 221.047574 275.427543 
L 222.977132 274.047617 
L 224.90669 274.022856 
L 226.836247 276.040456 
L 228.765805 276.148484 
L 230.695363 278.382402 
L 232.624921 277.660877 
L 234.554479 278.467267 
L 236.484037 274.907385 
L 238.413595 278.2426 
L 240.343153 278.275589 
L 242.272711 276.475214 
L 244.202269 279.596289 
L 246.131827 278.649724 
L 248.061385 277.898532 
L 249.990943 278.777622 
L 251.920501 278.396744 
L 253.850059 278.3144 
L 255.779617 276.739835 
L 257.709175 276.90439 
L 259.638733 278.049519 
L 263.497849 279.908329 
L 265.427407 279.807444 
L 267.356965 279.189091 
L 269.286523 276.789465 
L 271.216081 280.708347 
L 273.145639 278.027894 
L 275.075197 279.530576 
L 277.004755 279.997803 
L 278.934313 279.489232 
L 280.863871 277.648144 
L 282.793429 280.350636 
L 284.722987 279.790375 
L 286.652545 277.138087 
L 288.582103 280.186505 
L 290.511661 280.629185 
L 292.441219 278.515182 
L 294.370777 280.065641 
L 296.300335 280.864054 
L 300.159451 280.673086 
L 302.089009 280.258332 
L 304.018567 279.968272 
L 305.948125 282.065724 
L 307.877683 281.299211 
L 309.807241 281.243978 
L 311.736799 282.607645 
L 313.666357 280.592922 
L 315.595915 282.492407 
L 317.525473 280.932831 
L 319.455031 282.849578 
L 323.314147 281.059531 
L 325.243705 281.274791 
L 327.173263 283.325926 
L 329.102821 282.193793 
L 331.032379 282.501074 
L 334.891495 281.495375 
L 336.821053 281.861716 
L 338.750611 282.790161 
L 340.680169 285.644118 
L 342.609727 284.002861 
L 344.539285 281.874723 
L 346.468843 281.978339 
L 348.398401 281.660866 
L 350.327959 283.314005 
L 352.257517 281.624195 
L 354.187075 283.424886 
L 358.046191 284.313155 
L 359.975749 282.049428 
L 361.905307 283.539265 
L 363.834865 282.517278 
L 365.764423 282.984595 
L 367.693981 281.951812 
L 369.623539 282.240935 
L 371.553097 283.545068 
L 373.482655 283.336124 
L 375.412213 282.813822 
L 377.341771 282.996745 
L 379.271329 283.564286 
L 381.200887 285.078981 
L 383.130445 284.948658 
L 385.060003 281.622911 
L 386.98956 284.63446 
L 388.919118 282.22034 
L 392.778234 284.123776 
L 394.707792 283.10505 
L 396.63735 282.563778 
L 398.566908 283.822986 
L 400.496466 285.407235 
L 402.426024 281.569275 
L 404.355582 283.651411 
L 406.28514 283.229056 
L 408.214698 284.166214 
L 410.144256 283.069819 
L 412.073814 285.760622 
L 414.003372 283.409566 
L 415.93293 284.278614 
L 417.862488 284.589528 
L 419.792046 284.354632 
L 421.721604 284.547221 
L 423.651162 284.480296 
L 425.58072 284.713567 
L 427.510278 286.739465 
L 429.439836 284.542189 
L 431.369394 283.458386 
L 433.298952 284.391418 
L 435.22851 282.802432 
L 437.158068 284.510806 
L 439.087626 281.673258 
L 441.017184 282.712741 
L 442.946742 285.054986 
L 444.8763 283.141109 
L 446.805858 284.386218 
L 448.735416 283.836032 
L 450.664974 285.36003 
L 452.594532 284.389807 
L 454.52409 283.139887 
L 456.453648 284.844628 
L 458.383206 286.863846 
L 462.242322 285.541644 
L 464.17188 284.964947 
L 466.101438 286.687425 
L 468.030996 285.347755 
L 469.960554 285.230287 
L 471.890112 285.714666 
L 473.81967 284.554892 
L 475.749228 284.909305 
L 477.678786 287.74557 
L 479.608344 285.430996 
L 481.537902 284.579259 
L 483.46746 286.192798 
L 485.397018 285.094116 
L 487.326576 285.407619 
L 489.256134 285.227774 
L 491.185692 286.4687 
L 493.11525 288.28415 
L 495.044808 286.387539 
L 496.974366 286.046879 
L 498.903924 285.092536 
L 500.833482 288.266848 
L 502.76304 286.240924 
L 504.692598 286.932652 
L 506.622156 287.936163 
L 508.551714 284.288787 
L 510.481272 286.435622 
L 512.41083 283.361315 
L 514.340388 287.309939 
L 516.269946 284.401654 
L 518.199504 284.688643 
L 520.129062 286.542388 
L 522.05862 285.665656 
L 523.988178 285.356724 
L 525.917736 284.579406 
L 527.847294 285.633942 
L 529.776852 285.913149 
L 531.70641 284.580269 
L 533.635968 286.163612 
L 535.565526 287.0346 
L 535.565526 287.0346 
" clip-path="url(#p90c938a965)" style="fill: none; stroke: #0279ee; stroke-opacity: 0.8; stroke-width: 1.5; stroke-linecap: round"/>
   </g>
   <g id="line2d_15">
    <path d="M 76.330724 120.542272 
L 78.260282 183.025936 
L 80.18984 204.008193 
L 82.119398 215.697596 
L 84.048956 226.261867 
L 85.978514 233.443325 
L 87.908072 239.803192 
L 89.83763 243.911707 
L 91.767188 249.030897 
L 93.696746 252.599312 
L 95.626304 253.984503 
L 97.555862 257.476161 
L 99.48542 259.414338 
L 101.414978 262.326137 
L 103.344536 262.499304 
L 105.274094 265.519722 
L 107.203652 267.136564 
L 109.13321 267.605062 
L 111.062768 269.605247 
L 112.992326 270.560563 
L 114.921884 270.447221 
L 116.851442 271.759691 
L 120.710558 272.768326 
L 122.640116 273.93436 
L 126.499232 274.615416 
L 132.287906 277.531461 
L 134.217464 277.655801 
L 136.147022 277.516128 
L 138.07658 278.47733 
L 140.006138 278.90154 
L 141.935696 279.10388 
L 143.865254 279.789638 
L 145.794812 279.366136 
L 147.72437 279.872935 
L 149.653928 279.962832 
L 151.583486 281.000758 
L 155.442602 281.077423 
L 157.37216 281.322723 
L 159.301718 282.653651 
L 161.231276 282.141018 
L 165.090392 282.528719 
L 167.01995 282.522777 
L 168.949508 283.68541 
L 172.808624 283.116308 
L 174.738182 284.161438 
L 176.66774 283.6091 
L 178.597298 284.194876 
L 180.526856 285.411209 
L 182.456414 283.846557 
L 184.385972 284.989078 
L 186.31553 285.377559 
L 188.245088 284.624231 
L 190.174646 285.516739 
L 192.104204 285.339397 
L 195.96332 285.734527 
L 197.892878 285.610312 
L 199.822436 286.087157 
L 201.751994 286.001045 
L 203.681552 286.19116 
L 205.61111 286.513031 
L 207.540668 285.603782 
L 209.470226 286.641676 
L 211.399784 286.452001 
L 213.329342 287.064867 
L 215.2589 286.624856 
L 217.188458 287.374708 
L 219.118016 286.510221 
L 221.047574 287.534193 
L 222.977132 287.250858 
L 224.90669 286.086444 
L 226.836247 287.297684 
L 228.765805 286.737365 
L 230.695363 287.979923 
L 232.624921 287.09715 
L 234.554479 287.207981 
L 236.484037 287.858642 
L 238.413595 287.423147 
L 240.343153 288.20735 
L 242.272711 288.068924 
L 244.202269 287.48975 
L 246.131827 287.685312 
L 248.061385 287.714743 
L 249.990943 288.208576 
L 251.920501 288.578929 
L 253.850059 288.143164 
L 257.709175 288.526903 
L 259.638733 288.579915 
L 261.568291 288.866892 
L 263.497849 289.473165 
L 265.427407 288.773458 
L 267.356965 289.669099 
L 269.286523 288.43072 
L 271.216081 288.616685 
L 273.145639 289.540095 
L 275.075197 289.159894 
L 277.004755 289.718238 
L 280.863871 288.882964 
L 282.793429 289.287711 
L 284.722987 288.580666 
L 286.652545 289.312021 
L 288.582103 289.635669 
L 290.511661 289.835398 
L 292.441219 289.720424 
L 294.370777 290.03159 
L 296.300335 289.577576 
L 300.159451 289.623154 
L 302.089009 289.875018 
L 304.018567 289.887388 
L 305.948125 290.154692 
L 307.877683 290.089826 
L 309.807241 290.185656 
L 311.736799 289.925215 
L 313.666357 289.46844 
L 315.595915 289.935758 
L 317.525473 290.155662 
L 319.455031 290.502905 
L 321.384589 290.566047 
L 323.314147 290.113663 
L 325.243705 290.189781 
L 327.173263 290.589921 
L 329.102821 290.513058 
L 331.032379 290.595451 
L 332.961937 290.922513 
L 334.891495 291.051421 
L 336.821053 290.592653 
L 338.750611 290.486454 
L 342.609727 291.226789 
L 346.468843 290.431797 
L 348.398401 290.406506 
L 350.327959 291.19396 
L 352.257517 291.079739 
L 354.187075 290.43378 
L 356.116633 290.913864 
L 358.046191 290.426983 
L 359.975749 290.176019 
L 361.905307 290.457944 
L 363.834865 291.010827 
L 365.764423 291.110711 
L 367.693981 290.309747 
L 369.623539 291.318445 
L 371.553097 291.68319 
L 381.200887 290.824741 
L 383.130445 291.141618 
L 385.060003 291.222547 
L 386.98956 291.763096 
L 388.919118 291.773027 
L 390.848676 290.687748 
L 392.778234 291.627186 
L 394.707792 291.821284 
L 396.63735 291.120345 
L 398.566908 291.432749 
L 400.496466 291.098204 
L 402.426024 291.624054 
L 404.355582 291.747298 
L 406.28514 291.313192 
L 408.214698 291.691575 
L 410.144256 291.657109 
L 412.073814 291.442381 
L 414.003372 292.162041 
L 415.93293 291.489193 
L 417.862488 291.955218 
L 419.792046 291.894885 
L 423.651162 292.091166 
L 425.58072 291.640878 
L 427.510278 292.347249 
L 429.439836 291.909728 
L 431.369394 292.120905 
L 433.298952 291.444626 
L 435.22851 291.740262 
L 437.158068 292.178785 
L 439.087626 291.598308 
L 441.017184 292.361254 
L 442.946742 292.744668 
L 444.8763 292.018804 
L 448.735416 291.567519 
L 450.664974 292.160379 
L 452.594532 291.691464 
L 454.52409 292.146118 
L 456.453648 291.816257 
L 458.383206 292.355307 
L 462.242322 292.352049 
L 464.17188 292.806409 
L 466.101438 292.148741 
L 468.030996 291.739919 
L 469.960554 292.549902 
L 471.890112 292.418782 
L 475.749228 291.789144 
L 477.678786 292.588152 
L 479.608344 292.553127 
L 481.537902 292.767898 
L 483.46746 291.6139 
L 485.397018 292.161677 
L 487.326576 292.061407 
L 489.256134 292.12672 
L 491.185692 292.678238 
L 493.11525 292.264762 
L 495.044808 292.241371 
L 496.974366 293.274189 
L 498.903924 292.955033 
L 500.833482 292.435426 
L 502.76304 292.56523 
L 504.692598 292.486224 
L 506.622156 293.002148 
L 508.551714 292.454161 
L 510.481272 293.082565 
L 512.41083 292.448542 
L 514.340388 292.52949 
L 516.269946 292.445958 
L 518.199504 292.763911 
L 520.129062 292.807366 
L 522.05862 292.650678 
L 523.988178 293.112145 
L 525.917736 292.317374 
L 529.776852 292.495718 
L 531.70641 292.07204 
L 533.635968 292.899926 
L 535.565526 292.582885 
L 535.565526 292.582885 
" clip-path="url(#p90c938a965)" style="fill: none; stroke: #ff9400; stroke-opacity: 0.8; stroke-width: 1.5; stroke-linecap: round"/>
   </g>
   <g id="line2d_16">
    <path d="M 498.903924 306.195039 
L 498.903924 21.936328 
" clip-path="url(#p90c938a965)" style="fill: none; stroke-dasharray: 5.55,2.4; stroke-dashoffset: 0; stroke: #fd9bed; stroke-opacity: 0.7; stroke-width: 1.5"/>
   </g>
   <g id="patch_3">
    <path d="M 53.368984 306.195039 
L 53.368984 21.936328 
" style="fill: none; stroke: #cccccc; stroke-width: 1.25; stroke-linejoin: miter; stroke-linecap: square"/>
   </g>
   <g id="patch_4">
    <path d="M 558.527266 306.195039 
L 558.527266 21.936328 
" style="fill: none; stroke: #cccccc; stroke-width: 1.25; stroke-linejoin: miter; stroke-linecap: square"/>
   </g>
   <g id="patch_5">
    <path d="M 53.368984 306.195039 
L 558.527266 306.195039 
" style="fill: none; stroke: #cccccc; stroke-width: 1.25; stroke-linejoin: miter; stroke-linecap: square"/>
   </g>
   <g id="patch_6">
    <path d="M 53.368984 21.936328 
L 558.527266 21.936328 
" style="fill: none; stroke: #cccccc; stroke-width: 1.25; stroke-linejoin: miter; stroke-linecap: square"/>
   </g>
   <g id="text_16">
    <!-- Deep-Fusion Autoencoder | Training Curves -->
    <g style="fill: #262626" transform="translate(189.333437 15.936328) scale(0.12 -0.12)">
     <defs>
      <path id="ArialMT-27" d="M 494 0 
L 494 4581 
L 2072 4581 
Q 2606 4581 2888 4516 
Q 3281 4425 3559 4188 
Q 3922 3881 4101 3404 
Q 4281 2928 4281 2316 
Q 4281 1794 4159 1391 
Q 4038 988 3847 723 
Q 3656 459 3429 307 
Q 3203 156 2883 78 
Q 2563 0 2147 0 
L 494 0 
z
M 1100 541 
L 2078 541 
Q 2531 541 2789 625 
Q 3047 709 3200 863 
Q 3416 1078 3536 1442 
Q 3656 1806 3656 2325 
Q 3656 3044 3420 3430 
Q 3184 3816 2847 3947 
Q 2603 4041 2063 4041 
L 1100 4041 
L 1100 541 
z
" transform="scale(0.015625)"/>
      <path id="ArialMT-10" d="M 203 1375 
L 203 1941 
L 1931 1941 
L 1931 1375 
L 203 1375 
z
" transform="scale(0.015625)"/>
      <path id="ArialMT-29" d="M 525 0 
L 525 4581 
L 3616 4581 
L 3616 4041 
L 1131 4041 
L 1131 2622 
L 3281 2622 
L 3281 2081 
L 1131 2081 
L 1131 0 
L 525 0 
z
" transform="scale(0.015625)"/>
      <path id="ArialMT-24" d="M -9 0 
L 1750 4581 
L 2403 4581 
L 4278 0 
L 3588 0 
L 3053 1388 
L 1138 1388 
L 634 0 
L -9 0 
z
M 1313 1881 
L 2866 1881 
L 2388 3150 
Q 2169 3728 2063 4100 
Q 1975 3659 1816 3225 
L 1313 1881 
z
" transform="scale(0.015625)"/>
      <path id="ArialMT-47" d="M 2575 0 
L 2575 419 
Q 2259 -75 1647 -75 
Q 1250 -75 917 144 
Q 584 363 401 755 
Q 219 1147 219 1656 
Q 219 2153 384 2558 
Q 550 2963 881 3178 
Q 1213 3394 1622 3394 
Q 1922 3394 2156 3267 
Q 2391 3141 2538 2938 
L 2538 4581 
L 3097 4581 
L 3097 0 
L 2575 0 
z
M 797 1656 
Q 797 1019 1065 703 
Q 1334 388 1700 388 
Q 2069 388 2326 689 
Q 2584 991 2584 1609 
Q 2584 2291 2321 2609 
Q 2059 2928 1675 2928 
Q 1300 2928 1048 2622 
Q 797 2316 797 1656 
z
" transform="scale(0.015625)"/>
      <path id="ArialMT-5f" d="M 588 -1347 
L 588 4659 
L 1078 4659 
L 1078 -1347 
L 588 -1347 
z
" transform="scale(0.015625)"/>
      <path id="ArialMT-37" d="M 1659 0 
L 1659 4041 
L 150 4041 
L 150 4581 
L 3781 4581 
L 3781 4041 
L 2266 4041 
L 2266 0 
L 1659 0 
z
" transform="scale(0.015625)"/>
      <path id="ArialMT-44" d="M 2588 409 
Q 2275 144 1986 34 
Q 1697 -75 1366 -75 
Q 819 -75 525 192 
Q 231 459 231 875 
Q 231 1119 342 1320 
Q 453 1522 633 1644 
Q 813 1766 1038 1828 
Q 1203 1872 1538 1913 
Q 2219 1994 2541 2106 
Q 2544 2222 2544 2253 
Q 2544 2597 2384 2738 
Q 2169 2928 1744 2928 
Q 1347 2928 1158 2789 
Q 969 2650 878 2297 
L 328 2372 
Q 403 2725 575 2942 
Q 747 3159 1072 3276 
Q 1397 3394 1825 3394 
Q 2250 3394 2515 3294 
Q 2781 3194 2906 3042 
Q 3031 2891 3081 2659 
Q 3109 2516 3109 2141 
L 3109 1391 
Q 3109 606 3145 398 
Q 3181 191 3288 0 
L 2700 0 
Q 2613 175 2588 409 
z
M 2541 1666 
Q 2234 1541 1622 1453 
Q 1275 1403 1131 1340 
Q 988 1278 909 1158 
Q 831 1038 831 891 
Q 831 666 1001 516 
Q 1172 366 1500 366 
Q 1825 366 2078 508 
Q 2331 650 2450 897 
Q 2541 1088 2541 1459 
L 2541 1666 
z
" transform="scale(0.015625)"/>
      <path id="ArialMT-4a" d="M 319 -275 
L 866 -356 
Q 900 -609 1056 -725 
Q 1266 -881 1628 -881 
Q 2019 -881 2231 -725 
Q 2444 -569 2519 -288 
Q 2563 -116 2559 434 
Q 2191 0 1641 0 
Q 956 0 581 494 
Q 206 988 206 1678 
Q 206 2153 378 2554 
Q 550 2956 876 3175 
Q 1203 3394 1644 3394 
Q 2231 3394 2613 2919 
L 2613 3319 
L 3131 3319 
L 3131 450 
Q 3131 -325 2973 -648 
Q 2816 -972 2473 -1159 
Q 2131 -1347 1631 -1347 
Q 1038 -1347 672 -1080 
Q 306 -813 319 -275 
z
M 784 1719 
Q 784 1066 1043 766 
Q 1303 466 1694 466 
Q 2081 466 2343 764 
Q 2606 1063 2606 1700 
Q 2606 2309 2336 2618 
Q 2066 2928 1684 2928 
Q 1309 2928 1046 2623 
Q 784 2319 784 1719 
z
" transform="scale(0.015625)"/>
      <path id="ArialMT-26" d="M 3763 1606 
L 4369 1453 
Q 4178 706 3683 314 
Q 3188 -78 2472 -78 
Q 1731 -78 1267 223 
Q 803 525 561 1097 
Q 319 1669 319 2325 
Q 319 3041 592 3573 
Q 866 4106 1370 4382 
Q 1875 4659 2481 4659 
Q 3169 4659 3637 4309 
Q 4106 3959 4291 3325 
L 3694 3184 
Q 3534 3684 3231 3912 
Q 2928 4141 2469 4141 
Q 1941 4141 1586 3887 
Q 1231 3634 1087 3207 
Q 944 2781 944 2328 
Q 944 1744 1114 1308 
Q 1284 872 1643 656 
Q 2003 441 2422 441 
Q 2931 441 3284 734 
Q 3638 1028 3763 1606 
z
" transform="scale(0.015625)"/>
      <path id="ArialMT-59" d="M 1344 0 
L 81 3319 
L 675 3319 
L 1388 1331 
Q 1503 1009 1600 663 
Q 1675 925 1809 1294 
L 2547 3319 
L 3125 3319 
L 1869 0 
L 1344 0 
z
" transform="scale(0.015625)"/>
     </defs>
     <use xlink:href="#ArialMT-27"/>
     <use xlink:href="#ArialMT-48" transform="translate(72.21875 0)"/>
     <use xlink:href="#ArialMT-48" transform="translate(127.828125 0)"/>
     <use xlink:href="#ArialMT-53" transform="translate(183.4375 0)"/>
     <use xlink:href="#ArialMT-10" transform="translate(239.046875 0)"/>
     <use xlink:href="#ArialMT-29" transform="translate(272.34375 0)"/>
     <use xlink:href="#ArialMT-58" transform="translate(333.421875 0)"/>
     <use xlink:href="#ArialMT-56" transform="translate(389.03125 0)"/>
     <use xlink:href="#ArialMT-4c" transform="translate(439.03125 0)"/>
     <use xlink:href="#ArialMT-52" transform="translate(461.25 0)"/>
     <use xlink:href="#ArialMT-51" transform="translate(516.859375 0)"/>
     <use xlink:href="#ArialMT-3" transform="translate(572.46875 0)"/>
     <use xlink:href="#ArialMT-24" transform="translate(594.734375 0)"/>
     <use xlink:href="#ArialMT-58" transform="translate(661.4375 0)"/>
     <use xlink:href="#ArialMT-57" transform="translate(717.046875 0)"/>
     <use xlink:href="#ArialMT-52" transform="translate(744.828125 0)"/>
     <use xlink:href="#ArialMT-48" transform="translate(800.4375 0)"/>
     <use xlink:href="#ArialMT-51" transform="translate(856.046875 0)"/>
     <use xlink:href="#ArialMT-46" transform="translate(911.65625 0)"/>
     <use xlink:href="#ArialMT-52" transform="translate(961.65625 0)"/>
     <use xlink:href="#ArialMT-47" transform="translate(1017.265625 0)"/>
     <use xlink:href="#ArialMT-48" transform="translate(1072.875 0)"/>
     <use xlink:href="#ArialMT-55" transform="translate(1128.484375 0)"/>
     <use xlink:href="#ArialMT-3" transform="translate(1161.78125 0)"/>
     <use xlink:href="#ArialMT-5f" transform="translate(1189.5625 0)"/>
     <use xlink:href="#ArialMT-3" transform="translate(1215.546875 0)"/>
     <use xlink:href="#ArialMT-37" transform="translate(1241.515625 0)"/>
     <use xlink:href="#ArialMT-55" transform="translate(1298.890625 0)"/>
     <use xlink:href="#ArialMT-44" transform="translate(1332.1875 0)"/>
     <use xlink:href="#ArialMT-4c" transform="translate(1387.796875 0)"/>
     <use xlink:href="#ArialMT-51" transform="translate(1410.015625 0)"/>
     <use xlink:href="#ArialMT-4c" transform="translate(1465.625 0)"/>
     <use xlink:href="#ArialMT-51" transform="translate(1487.84375 0)"/>
     <use xlink:href="#ArialMT-4a" transform="translate(1543.453125 0)"/>
     <use xlink:href="#ArialMT-3" transform="translate(1599.0625 0)"/>
     <use xlink:href="#ArialMT-26" transform="translate(1626.84375 0)"/>
     <use xlink:href="#ArialMT-58" transform="translate(1699.0625 0)"/>
     <use xlink:href="#ArialMT-55" transform="translate(1754.671875 0)"/>
     <use xlink:href="#ArialMT-59" transform="translate(1787.96875 0)"/>
     <use xlink:href="#ArialMT-48" transform="translate(1837.96875 0)"/>
     <use xlink:href="#ArialMT-56" transform="translate(1893.578125 0)"/>
    </g>
   </g>
   <g id="legend_1">
    <g id="patch_7">
     <path d="M 246.464766 78.20627 
L 365.431484 78.20627 
Q 367.631484 78.20627 367.631484 76.00627 
L 367.631484 29.636328 
Q 367.631484 27.436328 365.431484 27.436328 
L 246.464766 27.436328 
Q 244.264766 27.436328 244.264766 29.636328 
L 244.264766 76.00627 
Q 244.264766 78.20627 246.464766 78.20627 
z
" style="fill: #ffffff; opacity: 0.8; stroke: #cccccc; stroke-linejoin: miter"/>
    </g>
    <g id="line2d_17">
     <path d="M 248.664766 35.994629 
L 259.664766 35.994629 
L 270.664766 35.994629 
" style="fill: none; stroke: #0279ee; stroke-opacity: 0.8; stroke-width: 1.5; stroke-linecap: round"/>
    </g>
    <g id="text_17">
     <!-- Train loss -->
     <g style="fill: #262626" transform="translate(279.464766 39.844629) scale(0.11 -0.11)">
      <use xlink:href="#ArialMT-37"/>
      <use xlink:href="#ArialMT-55" transform="translate(57.375 0)"/>
      <use xlink:href="#ArialMT-44" transform="translate(90.671875 0)"/>
      <use xlink:href="#ArialMT-4c" transform="translate(146.28125 0)"/>
      <use xlink:href="#ArialMT-51" transform="translate(168.5 0)"/>
      <use xlink:href="#ArialMT-3" transform="translate(224.109375 0)"/>
      <use xlink:href="#ArialMT-4f" transform="translate(251.890625 0)"/>
      <use xlink:href="#ArialMT-52" transform="translate(274.109375 0)"/>
      <use xlink:href="#ArialMT-56" transform="translate(329.71875 0)"/>
      <use xlink:href="#ArialMT-56" transform="translate(379.71875 0)"/>
     </g>
    </g>
    <g id="line2d_18">
     <path d="M 248.664766 51.817871 
L 259.664766 51.817871 
L 270.664766 51.817871 
" style="fill: none; stroke: #ff9400; stroke-opacity: 0.8; stroke-width: 1.5; stroke-linecap: round"/>
    </g>
    <g id="text_18">
     <!-- Val loss -->
     <g style="fill: #262626" transform="translate(279.464766 55.667871) scale(0.11 -0.11)">
      <defs>
       <path id="ArialMT-39" d="M 1803 0 
L 28 4581 
L 684 4581 
L 1875 1253 
Q 2019 853 2116 503 
Q 2222 878 2363 1253 
L 3600 4581 
L 4219 4581 
L 2425 0 
L 1803 0 
z
" transform="scale(0.015625)"/>
      </defs>
      <use xlink:href="#ArialMT-39"/>
      <use xlink:href="#ArialMT-44" transform="translate(59.28125 0)"/>
      <use xlink:href="#ArialMT-4f" transform="translate(114.890625 0)"/>
      <use xlink:href="#ArialMT-3" transform="translate(137.109375 0)"/>
      <use xlink:href="#ArialMT-4f" transform="translate(164.890625 0)"/>
      <use xlink:href="#ArialMT-52" transform="translate(187.109375 0)"/>
      <use xlink:href="#ArialMT-56" transform="translate(242.71875 0)"/>
      <use xlink:href="#ArialMT-56" transform="translate(292.71875 0)"/>
     </g>
    </g>
    <g id="line2d_19">
     <path d="M 248.664766 67.641113 
L 259.664766 67.641113 
L 270.664766 67.641113 
" style="fill: none; stroke-dasharray: 5.55,2.4; stroke-dashoffset: 0; stroke: #fd9bed; stroke-opacity: 0.7; stroke-width: 1.5"/>
    </g>
    <g id="text_19">
     <!-- Best epoch (219) -->
     <g style="fill: #262626" transform="translate(279.464766 71.491113) scale(0.11 -0.11)">
      <defs>
       <path id="ArialMT-25" d="M 469 0 
L 469 4581 
L 2188 4581 
Q 2713 4581 3030 4442 
Q 3347 4303 3526 4014 
Q 3706 3725 3706 3409 
Q 3706 3116 3547 2856 
Q 3388 2597 3066 2438 
Q 3481 2316 3704 2022 
Q 3928 1728 3928 1328 
Q 3928 1006 3792 729 
Q 3656 453 3456 303 
Q 3256 153 2954 76 
Q 2653 0 2216 0 
L 469 0 
z
M 1075 2656 
L 2066 2656 
Q 2469 2656 2644 2709 
Q 2875 2778 2992 2937 
Q 3109 3097 3109 3338 
Q 3109 3566 3000 3739 
Q 2891 3913 2687 3977 
Q 2484 4041 1991 4041 
L 1075 4041 
L 1075 2656 
z
M 1075 541 
L 2216 541 
Q 2509 541 2628 563 
Q 2838 600 2978 687 
Q 3119 775 3209 942 
Q 3300 1109 3300 1328 
Q 3300 1584 3169 1773 
Q 3038 1963 2805 2039 
Q 2572 2116 2134 2116 
L 1075 2116 
L 1075 541 
z
" transform="scale(0.015625)"/>
       <path id="ArialMT-1c" d="M 350 1059 
L 891 1109 
Q 959 728 1153 556 
Q 1347 384 1650 384 
Q 1909 384 2104 503 
Q 2300 622 2425 820 
Q 2550 1019 2634 1356 
Q 2719 1694 2719 2044 
Q 2719 2081 2716 2156 
Q 2547 1888 2255 1720 
Q 1963 1553 1622 1553 
Q 1053 1553 659 1965 
Q 266 2378 266 3053 
Q 266 3750 677 4175 
Q 1088 4600 1706 4600 
Q 2153 4600 2523 4359 
Q 2894 4119 3086 3673 
Q 3278 3228 3278 2384 
Q 3278 1506 3087 986 
Q 2897 466 2520 194 
Q 2144 -78 1638 -78 
Q 1100 -78 759 220 
Q 419 519 350 1059 
z
M 2653 3081 
Q 2653 3566 2395 3850 
Q 2138 4134 1775 4134 
Q 1400 4134 1122 3828 
Q 844 3522 844 3034 
Q 844 2597 1108 2323 
Q 1372 2050 1759 2050 
Q 2150 2050 2401 2323 
Q 2653 2597 2653 3081 
z
" transform="scale(0.015625)"/>
      </defs>
      <use xlink:href="#ArialMT-25"/>
      <use xlink:href="#ArialMT-48" transform="translate(66.703125 0)"/>
      <use xlink:href="#ArialMT-56" transform="translate(122.3125 0)"/>
      <use xlink:href="#ArialMT-57" transform="translate(172.3125 0)"/>
      <use xlink:href="#ArialMT-3" transform="translate(200.09375 0)"/>
      <use xlink:href="#ArialMT-48" transform="translate(227.875 0)"/>
      <use xlink:href="#ArialMT-53" transform="translate(283.484375 0)"/>
      <use xlink:href="#ArialMT-52" transform="translate(339.09375 0)"/>
      <use xlink:href="#ArialMT-46" transform="translate(394.703125 0)"/>
      <use xlink:href="#ArialMT-4b" transform="translate(444.703125 0)"/>
      <use xlink:href="#ArialMT-3" transform="translate(500.3125 0)"/>
      <use xlink:href="#ArialMT-b" transform="translate(528.09375 0)"/>
      <use xlink:href="#ArialMT-15" transform="translate(561.390625 0)"/>
      <use xlink:href="#ArialMT-14" transform="translate(617 0)"/>
      <use xlink:href="#ArialMT-1c" transform="translate(672.609375 0)"/>
      <use xlink:href="#ArialMT-c" transform="translate(728.21875 0)"/>
     </g>
    </g>
   </g>
  </g>
 </g>
 <defs>
  <clipPath id="p90c938a965">
   <rect x="53.368984" y="21.936328" width="505.158281" height="284.258711"/>
  </clipPath>
 </defs>
</svg>
